<?xml version="1.0" encoding="UTF-8" standalone="no"?><!DOCTYPE svg PUBLIC "-//W3C//DTD SVG 1.1//EN" "http://www.w3.org/Graphics/SVG/1.1/DTD/svg11.dtd"><svg width="100%" height="100%" viewBox="0 0 512 512" version="1.1" xmlns="http://www.w3.org/2000/svg" xmlns:xlink="http://www.w3.org/1999/xlink" xml:space="preserve" xmlns:serif="http://www.serif.com/" style="fill-rule:evenodd;clip-rule:evenodd;stroke-linejoin:round;stroke-miterlimit:2;"><path d="M320,256c0,35.348 -28.652,64 -64,64c-35.348,0 -64,-28.652 -64,-64c0,-35.348 28.652,-64 64,-64c35.348,0 64,28.652 64,64Z" style="fill:#fff;fill-rule:nonzero;"/><path d="M128,256c0,35.348 -28.652,64 -64,64c-35.348,0 -64,-28.652 -64,-64c0,-35.348 28.652,-64 64,-64c35.348,0 64,28.652 64,64Z" style="fill:#fff;fill-rule:nonzero;"/><path d="M512,256c0,35.348 -28.652,64 -64,64c-35.348,0 -64,-28.652 -64,-64c0,-35.348 28.652,-64 64,-64c35.348,0 64,28.652 64,64Z" style="fill:#fff;fill-rule:nonzero;"/></svg>