<?xml version="1.0" encoding="UTF-8" standalone="no"?><!DOCTYPE svg PUBLIC "-//W3C//DTD SVG 1.1//EN" "http://www.w3.org/Graphics/SVG/1.1/DTD/svg11.dtd"><svg width="100%" height="100%" viewBox="0 0 330 330" version="1.1" xmlns="http://www.w3.org/2000/svg" xmlns:xlink="http://www.w3.org/1999/xlink" xml:space="preserve" xmlns:serif="http://www.serif.com/" style="fill-rule:evenodd;clip-rule:evenodd;stroke-linejoin:round;stroke-miterlimit:2;"><g><path d="M165,0c-90.981,0 -165,74.02 -165,165.001c0,90.981 74.019,164.999 165,164.999c90.981,0 165,-74.018 165,-164.999c0,-90.981 -74.019,-165.001 -165,-165.001Zm0,300c-74.44,0 -135,-60.56 -135,-134.999c0,-74.439 60.56,-135.001 135,-135.001c74.44,0 135,60.562 135,135.001c0,74.439 -60.561,134.999 -135,134.999Z" style="fill:#fff;fill-rule:nonzero;"/><path d="M164.998,70c-11.026,0 -19.996,8.976 -19.996,20.009c0,11.023 8.97,19.991 19.996,19.991c11.026,0 19.996,-8.968 19.996,-19.991c0,-11.033 -8.97,-20.009 -19.996,-20.009Z" style="fill:#fff;fill-rule:nonzero;"/><path d="M165,140c-8.284,0 -15,6.716 -15,15l0,90c0,8.284 6.716,15 15,15c8.284,0 15,-6.716 15,-15l0,-90c0,-8.284 -6.716,-15 -15,-15Z" style="fill:#fff;fill-rule:nonzero;"/></g></svg>