<?xml version="1.0" encoding="UTF-8" standalone="no"?><!DOCTYPE svg PUBLIC "-//W3C//DTD SVG 1.1//EN" "http://www.w3.org/Graphics/SVG/1.1/DTD/svg11.dtd"><svg width="100%" height="100%" viewBox="0 0 302 302" version="1.1" xmlns="http://www.w3.org/2000/svg" xmlns:xlink="http://www.w3.org/1999/xlink" xml:space="preserve" xmlns:serif="http://www.serif.com/" style="fill-rule:evenodd;clip-rule:evenodd;stroke-linejoin:round;stroke-miterlimit:2;"><g><g><path d="M272.013,239.992c72.277,-98.051 3.343,-238.956 -120.108,-239.933c-0.005,-0 -0.009,-0.001 -0.014,-0.001c-0.013,-0 -0.027,-0 -0.039,-0.001c-0.019,-0 -0.039,-0.001 -0.057,-0.001l-0.043,-0c-0.756,-0.019 -1.522,-0.019 -2.196,-0l-0.02,-0c-0.009,-0 -0.018,0.001 -0.026,0.001l-0.03,-0c-83.654,0.634 -149.48,68.728 -149.48,150.653c-0,83.201 67.451,150.664 150.664,150.664c26.765,0 53.515,-7.072 77.353,-21.367l19.125,19.126c2.981,2.978 7.826,2.993 10.819,-0.001l31.181,-31.192c2.988,-2.989 2.987,-7.832 -0,-10.818l-17.129,-17.13Zm-167.417,-216.456c-12.458,14.071 -22.753,33.963 -29.699,58.324l-40.767,0c16.111,-27.156 41.285,-47.673 70.466,-58.324Zm-78.277,73.624l44.787,0c-3.109,14.681 -4.897,30.054 -5.331,45.9l-50.265,0c0.875,-15.936 4.504,-31.324 10.809,-45.9Zm-10.809,61.2l50.266,0c0.433,15.847 2.222,31.22 5.331,45.9l-44.788,0c-6.305,-14.574 -9.934,-29.962 -10.809,-45.9Zm18.62,61.2l40.766,0c6.946,24.359 17.239,44.25 29.69,58.32c-29.175,-10.651 -54.344,-31.167 -70.456,-58.32Zm108.884,65.65c-21.34,-4.782 -40.88,-29.327 -52.151,-65.65l52.151,-0l0,65.65Zm0,-80.95l-56.232,-0c-3.32,-14.596 -5.241,-29.977 -5.703,-45.9l61.935,-0l0,45.9Zm0.001,-61.2l-61.936,-0c0.461,-15.923 2.382,-31.303 5.702,-45.9l56.234,-0l-0,45.9Zm0,-61.201l-52.151,-0c11.264,-36.302 30.791,-60.842 52.151,-65.644l0,65.644Zm131.993,122.401l-7.578,-0l6.595,-6.595c4.162,-4.164 2.247,-11.279 -3.43,-12.799l-36.048,-9.66c0.505,-5.544 0.847,-11.17 1.004,-16.845l50.267,-0c-0.875,15.934 -4.503,31.321 -10.81,45.899Zm10.81,-61.2l-50.265,-0c-0.433,-15.847 -2.223,-31.22 -5.331,-45.9l44.786,-0c6.306,14.574 9.935,29.963 10.81,45.9Zm-18.62,-61.2l-40.766,-0c-6.946,-24.359 -17.239,-44.25 -29.69,-58.32c29.177,10.65 54.347,31.167 70.456,58.32Zm-108.884,-65.651c21.34,4.782 40.88,29.327 52.151,65.65l-52.151,-0l-0,-65.65Zm-0,80.951l56.233,-0c3.32,14.595 5.242,29.976 5.703,45.9l-61.935,-0l-0,-45.9l-0.001,-0Zm61.921,61.2c-0.126,4.311 -0.348,8.596 -0.686,12.826l-47.859,-12.826l48.545,-0Zm-61.921,126.844l-0,-65.644l0.217,-0l15.616,58.28c-5.125,3.666 -10.445,6.146 -15.833,7.364Zm38.122,-7.08c3.309,-3.699 6.472,-7.813 9.465,-12.325l3.955,-3.955l6.979,6.979c-6.549,3.678 -13.373,6.779 -20.399,9.301Zm56.115,4.78l-37.286,-37.287c-2.986,-2.986 -7.83,-2.989 -10.819,-0.001c-10.898,10.898 -8.04,8.04 -18.211,18.212l-24.751,-92.363c38.489,10.316 81.823,21.928 92.354,24.75l-18.211,18.209c-2.988,2.989 -2.988,7.832 -0,10.819l37.289,37.289l-20.365,20.372Zm14.677,-63.344c-1.92,3.245 -3.972,6.412 -6.159,9.488l-9.213,-9.213l0.274,-0.275l15.098,0Z" style="fill:#fff;fill-rule:nonzero;"/></g></g></svg>