<?xml version="1.0" encoding="UTF-8" standalone="no"?><!DOCTYPE svg PUBLIC "-//W3C//DTD SVG 1.1//EN" "http://www.w3.org/Graphics/SVG/1.1/DTD/svg11.dtd"><svg width="100%" height="100%" viewBox="0 0 396 396" version="1.1" xmlns="http://www.w3.org/2000/svg" xmlns:xlink="http://www.w3.org/1999/xlink" xml:space="preserve" xmlns:serif="http://www.serif.com/" style="fill-rule:evenodd;clip-rule:evenodd;stroke-linejoin:round;stroke-miterlimit:2;"><g><path d="M197.849,0c-75.718,0 -137.318,61.609 -137.318,137.329c-0,72.887 124.591,243.177 129.896,250.388l4.951,6.738c0.579,0.792 1.501,1.255 2.471,1.255c0.985,0 1.901,-0.463 2.486,-1.255l4.948,-6.738c5.308,-7.211 129.896,-177.501 129.896,-250.388c-0,-75.72 -61.61,-137.329 -137.33,-137.329Zm-0,88.138c27.13,0 49.191,22.062 49.191,49.191c-0,27.115 -22.062,49.191 -49.191,49.191c-27.114,0 -49.191,-22.076 -49.191,-49.191c-0,-27.129 22.076,-49.191 49.191,-49.191Z" style="fill:#fff;fill-rule:nonzero;"/></g></svg>